# xmcd CD database file generated by freedbAccess_ocx
#
# Track frame offsets:
#       150
#       17577
#       37747
#       54255
#       73797
#       94725
#       111065
#       126237
#       141245
#       156162
#       172755
#
# Disc length: 2574 seconds
#
# Revision: 0
# Processed by: cddbd v1.4PL0 Copyright (c) Steve Scherf et al.
# Submitted via: CDnGo 1.95
#
DISCID=860a0c0b
DTITLE=Terry Clark - Only Believe
DYEAR=2000
DGENRE=Contemporary Christian
TTITLE0=God You're So Good
TTITLE1=High And Lifted Up
TTITLE2=Oh Lord I Love You
TTITLE3=We've Come To Worship
TTITLE4=Hear The Heavens
TTITLE5=Grateful
TTITLE6=When I Consider
TTITLE7=The Lord God Almighty Reigns
TTITLE8=Stand On The Rock
TTITLE9=Only Believe
TTITLE10=Softly And Tenderly
EXTD=
EXTT0=
EXTT1=
EXTT2=
EXTT3=
EXTT4=
EXTT5=
EXTT6=
EXTT7=
EXTT8=
EXTT9=
EXTT10=
PLAYORDER=
